# xmcd
#
# Track frame offsets:
#	183
#	31958
#	51983
#
# Disc length: 949 seconds
#
# Revision: 0
# Processed by: cddbd v1.5.1PL2 Copyright (c) Steve Scherf et al.
# Submitted via: audiograbber 1.83.01
#
DISCID=2003b303
DTITLE=Chris Thompson - Beat of Love
DYEAR=1991
DGENRE=Pop
TTITLE0=Beat of Love (Extended Version)
TTITLE1=When the Wind blows
TTITLE2=Beat of Love (Single Version)
EXTD=
EXTT0=
EXTT1=
EXTT2=
PLAYORDER=
